<svg xmlns="http://www.w3.org/2000/svg" xmlns:xlink="http://www.w3.org/1999/xlink" version="1.1" id="Layer_1" x="0px" y="0px" width="36px" height="36px" viewBox="0 0 36 36" enable-background="new 0 0 36 36" xml:space="preserve">
<g>
	<path d="M21.786,27.641h-7.574c-0.274,0-0.496,0.222-0.496,0.496c0,0.272,0.222,0.496,0.496,0.496h7.574   c0.275,0,0.497-0.224,0.497-0.496C22.283,27.862,22.062,27.641,21.786,27.641z"/>
	<path d="M21.786,29.429h-7.574c-0.274,0-0.496,0.222-0.496,0.496s0.222,0.496,0.496,0.496h7.574c0.275,0,0.497-0.222,0.497-0.496   S22.062,29.429,21.786,29.429z"/>
	<path d="M21.786,31.217h-7.574c-0.274,0-0.496,0.222-0.496,0.496s0.222,0.496,0.496,0.496h1.471   c0.011,0.508,0.422,0.916,0.932,0.916h2.771c0.51,0,0.92-0.408,0.932-0.916h1.469c0.275,0,0.497-0.222,0.497-0.496   S22.062,31.217,21.786,31.217z"/>
	<path d="M18,2.875c-5.493,0-9.961,4.468-9.961,9.962c0,2.496,1.558,5.104,2.036,5.847c-0.012-0.018,0.705,1.12,0.705,1.12   c1.254,1.968,2.438,3.825,2.715,6.093c0.06,0.483,0.469,0.848,0.957,0.848h7.245c0.486,0,0.896-0.364,0.956-0.846   c0.303-2.444,1.535-4.424,2.84-6.52l0.443-0.713c0.467-0.724,2.023-3.333,2.023-5.829C27.96,7.343,23.492,2.875,18,2.875z    M15.38,7.816c-1.902,0.97-3.082,2.893-3.082,5.021c0,0.217,0.045,0.705,0.353,1.534c0.185,0.5-0.069,1.054-0.569,1.238   c-0.498,0.187-1.053-0.068-1.238-0.568c-0.217-0.583-0.473-1.438-0.473-2.204c0-2.855,1.584-5.438,4.135-6.737   c0.473-0.242,1.054-0.054,1.296,0.42C16.043,6.994,15.854,7.574,15.38,7.816z"/>
</g>
</svg>