<?xml version="1.0" encoding="utf-8"?>
<!-- Generator: Adobe Illustrator 15.0.0, SVG Export Plug-In . SVG Version: 6.00 Build 0)  -->
<!DOCTYPE svg PUBLIC "-//W3C//DTD SVG 1.1//EN" "http://www.w3.org/Graphics/SVG/1.1/DTD/svg11.dtd">
<svg version="1.1" id="Layer_1" xmlns="http://www.w3.org/2000/svg" xmlns:xlink="http://www.w3.org/1999/xlink" x="0px" y="0px"
	 width="28.583px" height="34.25px" viewBox="0 0 28.583 34.25" enable-background="new 0 0 28.583 34.25" xml:space="preserve">
<g id="Page_1">
	<path id="Close" fill="#010202" d="M9.636,17.551l2.241-2.243c0.552-0.552,1.448-0.552,2,0l4.657,4.656l4.655-4.656
		c0.552-0.552,1.447-0.552,2,0l2.241,2.243c0.552,0.553,0.552,1.447,0.001,1.999l-4.656,4.656l4.656,4.656
		c0.551,0.552,0.551,1.447-0.001,1.999l-2.241,2.242c-0.553,0.552-1.448,0.552-2,0l-4.655-4.656l-4.657,4.656
		c-0.552,0.552-1.447,0.552-2,0l-2.241-2.242c-0.552-0.552-0.552-1.447-0.001-1.999l4.656-4.656L9.635,19.55
		C9.083,18.998,9.083,18.104,9.636,17.551z"/>
</g>
<path fill="#010202" d="M16.425,0H0v31.154h23.966V7.54L16.425,0z M16.775,2.045l5.145,5.144h-5.145V2.045z M1.198,29.956V1.198
	h14.379v7.189h7.19v21.569H1.198z"/>
</svg>
