<?xml version="1.0" encoding="utf-8"?>
<!-- Generator: Adobe Illustrator 15.0.0, SVG Export Plug-In . SVG Version: 6.00 Build 0)  -->
<!DOCTYPE svg PUBLIC "-//W3C//DTD SVG 1.1//EN" "http://www.w3.org/Graphics/SVG/1.1/DTD/svg11.dtd">
<svg version="1.1" id="Layer_1" xmlns="http://www.w3.org/2000/svg" xmlns:xlink="http://www.w3.org/1999/xlink" x="0px" y="0px"
	 width="23.966px" height="31.154px" viewBox="0 0 23.966 31.154" enable-background="new 0 0 23.966 31.154" xml:space="preserve">
<g id="Page_1">
	<path id="Close" fill="#010202" d="M1.836,7.987l2.557-2.557c0.63-0.63,1.651-0.63,2.28,0l5.31,5.31l5.31-5.31
		c0.629-0.63,1.65-0.63,2.28,0l2.557,2.557c0.629,0.629,0.629,1.65,0,2.28l-5.31,5.31l5.31,5.31c0.629,0.629,0.629,1.65,0,2.28
		l-2.557,2.557c-0.629,0.63-1.65,0.63-2.28,0l-5.31-5.31l-5.31,5.31c-0.629,0.63-1.65,0.63-2.28,0l-2.557-2.557
		c-0.629-0.629-0.63-1.65,0-2.28l5.31-5.31l-5.31-5.31C1.206,9.638,1.207,8.617,1.836,7.987z"/>
</g>
</svg>
