<?xml version="1.0" encoding="utf-8"?>
<!-- Generator: Adobe Illustrator 15.0.0, SVG Export Plug-In . SVG Version: 6.00 Build 0)  -->
<!DOCTYPE svg PUBLIC "-//W3C//DTD SVG 1.1//EN" "http://www.w3.org/Graphics/SVG/1.1/DTD/svg11.dtd">
<svg version="1.1"
	 id="svg2" sodipodi:docname="The_Noun_Project_Single_Icon_Template_v1.1.ai" inkscape:version="0.48.3.1 r9886" xmlns:dc="http://purl.org/dc/elements/1.1/" xmlns:cc="http://creativecommons.org/ns#" xmlns:rdf="http://www.w3.org/1999/02/22-rdf-syntax-ns#" xmlns:svg="http://www.w3.org/2000/svg" xmlns:sodipodi="http://sodipodi.sourceforge.net/DTD/sodipodi-0.dtd" xmlns:inkscape="http://www.inkscape.org/namespaces/inkscape"
	 xmlns="http://www.w3.org/2000/svg" xmlns:xlink="http://www.w3.org/1999/xlink" x="0px" y="0px" width="100px" height="87.979px"
	 viewBox="0 0 100 87.979" enable-background="new 0 0 100 87.979" xml:space="preserve">
<path id="path4520-9" inkscape:radius="1.9445436" sodipodi:type="inkscape:offset" inkscape:original="M -97 1117.625 L -147 1167.625 L -134.5 1167.625 L -134.5 1205.125 L -121.34375 1205.125 L -103.25 1205.125 L -90.75 1205.125 L -72.1875 1205.125 L -59.5 1205.125 L -59.5 1167.625 L -47 1167.625 L -59.75 1154.875 L -59.75 1137.375 L -68 1137.375 L -68 1146.625 L -97 1117.625 z " fill="#FFFFFF" d="
	M49.789,0.013c-0.422,0.049-0.814,0.24-1.113,0.542L0.542,48.691c-0.728,0.733-0.721,1.92,0.014,2.646
	c0.349,0.345,0.819,0.538,1.31,0.541h10.168v34.235c0.003,1.027,0.836,1.86,1.865,1.864h12.666h17.417h12.035h17.869h12.215
	c1.027-0.004,1.86-0.837,1.864-1.864V51.879h10.168c1.034-0.005,1.869-0.846,1.865-1.88c-0.002-0.49-0.194-0.961-0.541-1.31
	L87.727,36.956V20.892c-0.004-1.027-0.838-1.86-1.865-1.864h-7.942c-1.028,0.004-1.86,0.837-1.864,1.864v4.393L51.325,0.555
	C50.922,0.151,50.355-0.05,49.789,0.013z"/>
</svg>
