<?xml version="1.0" encoding="utf-8"?>
<!-- Generator: Adobe Illustrator 15.0.0, SVG Export Plug-In . SVG Version: 6.00 Build 0)  -->
<!DOCTYPE svg PUBLIC "-//W3C//DTD SVG 1.1//EN" "http://www.w3.org/Graphics/SVG/1.1/DTD/svg11.dtd">
<svg version="1.1" id="Layer_1" xmlns="http://www.w3.org/2000/svg" xmlns:xlink="http://www.w3.org/1999/xlink" x="0px" y="0px"
	 width="37.207px" height="100px" viewBox="0 0 37.207 100" enable-background="new 0 0 37.207 100" xml:space="preserve">
<circle fill="#FFFFFF" cx="18.118" cy="8.159" r="8.159"/>
<path fill="#FFFFFF" d="M8.472,95.426c0,2.524,2.05,4.574,4.574,4.574c2.529,0,4.576-2.05,4.576-4.574l0.004-38.374h2.037
	L19.65,95.426c0,2.524,2.048,4.574,4.574,4.574c2.525,0,4.572-2.05,4.572-4.574l0.02-66.158h2.007v24.38
	c0,4.904,6.397,4.904,6.384,0v-24.9c0-5.418-3.184-10.728-9.523-10.728L9.396,18.012C3.619,18.012,0,22.722,0,28.599v25.049
	c0,4.869,6.433,4.869,6.433,0V29.269h2.048L8.472,95.426z"/>
</svg>
