<?xml version="1.0" encoding="utf-8"?>
<!-- Generator: Adobe Illustrator 15.0.0, SVG Export Plug-In . SVG Version: 6.00 Build 0)  -->
<!DOCTYPE svg PUBLIC "-//W3C//DTD SVG 1.1//EN" "http://www.w3.org/Graphics/SVG/1.1/DTD/svg11.dtd">
<svg version="1.1" id="Layer_1" xmlns="http://www.w3.org/2000/svg" xmlns:xlink="http://www.w3.org/1999/xlink" x="0px" y="0px"
	 width="100px" height="100px" viewBox="0 0 100 100" enable-background="new 0 0 100 100" xml:space="preserve">
<path fill="#FFFFFF" d="M83.541,67.372C78.377,56.491,67.83,42.033,47.893,40.231c-2.32-0.229-4.138-2.131-4.215-4.465
	c-0.004-0.053-0.004-0.105-0.004-0.163c0-0.053,0-0.101,0.004-0.154v-6.5h-0.004c0-1.143-0.937-2.07-2.088-2.07
	c-0.505,0-0.967,0.18-1.327,0.475c-0.024,0.018-0.048,0.04-0.074,0.062L17.99,47.056c-0.002,0.004-0.006,0.004-0.011,0.009
	l-0.272,0.242c-0.888,0.848-1.437,2.035-1.437,3.349c0,1.15,0.426,2.21,1.129,3.023l0.805,0.737L40.11,74.509
	c0.031,0.03,0.058,0.062,0.088,0.089c0.372,0.324,0.857,0.519,1.389,0.519c1.151,0,2.088-0.923,2.088-2.065h0.004v-8.13
	c-0.004-0.053-0.004-0.104-0.004-0.157c0-0.054,0-0.105,0.004-0.158c0.084-2.496,2.153-4.491,4.693-4.491v-0.009
	c12.806,0.254,23.272,1.867,31.649,9.442c0,0,0,0,0.004,0c0.154,0.146,0.313,0.286,0.467,0.433c0.004,0.004,0.004,0.004,0.004,0.004
	c0.334,0.22,0.734,0.352,1.165,0.352c1.155,0,2.087-0.923,2.087-2.064C83.747,67.943,83.678,67.645,83.541,67.372z"/>
</svg>
