<?xml version="1.0" encoding="utf-8"?>
<!-- Generator: Adobe Illustrator 15.0.0, SVG Export Plug-In . SVG Version: 6.00 Build 0)  -->
<!DOCTYPE svg PUBLIC "-//W3C//DTD SVG 1.1//EN" "http://www.w3.org/Graphics/SVG/1.1/DTD/svg11.dtd">
<svg version="1.1" id="Layer_1" xmlns="http://www.w3.org/2000/svg" xmlns:xlink="http://www.w3.org/1999/xlink" x="0px" y="0px"
	 width="100px" height="100px" viewBox="0 0 100 100" enable-background="new 0 0 100 100" xml:space="preserve">
<path fill="#FFFFFF" d="M58.318,11.772c3.365-5.54,13.574-5.211,14.879,1.74c0.869,7.819,0.107,15.745,0.33,23.562
	c4.557,0.11,9.229-0.217,13.789,0.217c3.908,0.327,7.277,3.692,7.492,7.709c0.325,6.734,0,13.574,0.11,20.305
	c0,1.629,0,3.369,0,4.997c-0.437,6.08,1.624,13.468-3.151,18.242c-4.123,3.912-10.094,3.046-15.312,3.149
	c-6.953-0.324-14.229,1.088-20.745-1.955c-3.799-1.521-6.839-4.775-11.076-5.205c-4.449-0.223-9.013,0-13.466-0.114
	c0,2.5,0,5.103,0,7.606c-8.687,0-17.483,0.104-26.17,0c0-15.858,0-31.821,0-47.675c2.389,0,4.886,0,7.277,0c1.737,0,3.366,0,4.997,0
	c7.056,0,14.116,0.106,21.177,0c3.692,0,7.926-1.303,9.882-4.671C52.672,30.774,52.891,20.135,58.318,11.772 M62.012,15.465
	c-4.775,8.687-4.994,19.329-9.988,27.91c-4.777,6.622-13.572,6.186-20.851,5.973c0.109,10.095,0,20.087,0,30.076
	c4.997,0.11,9.883-0.326,14.879,0.215c5.321,0.437,9.012,4.993,14.116,6.303c4.997,1.302,10.102,0.539,15.096,0.762
	c3.805-0.11,7.817,0.438,11.512-0.872c2.931-1.084,3.146-4.558,3.146-7.162c0-10.862,0.106-21.721,0-32.471
	c0.106-2.065-1.733-4.017-3.799-4.017c-5.865-0.216-11.728,0-17.595-0.108c-0.324-9.558,0.654-19.329-0.539-28.887
	C65.705,12.858,63.098,13.075,62.012,15.465"/>
</svg>
