<?xml version="1.0" encoding="utf-8"?>
<!-- Generator: Adobe Illustrator 15.0.0, SVG Export Plug-In . SVG Version: 6.00 Build 0)  -->
<!DOCTYPE svg PUBLIC "-//W3C//DTD SVG 1.1//EN" "http://www.w3.org/Graphics/SVG/1.1/DTD/svg11.dtd">
<svg version="1.1" id="Layer_1" xmlns="http://www.w3.org/2000/svg" xmlns:xlink="http://www.w3.org/1999/xlink" x="0px" y="0px"
	 width="100px" height="100px" viewBox="0 0 100 100" enable-background="new 0 0 100 100" xml:space="preserve">
<path id="gear-5-icon_1_" fill="#FFFFFF" d="M54.532,10.824l2.985,8.393c2.002,0.581,3.926,1.38,5.714,2.373l8.05-3.826l6.686,6.683
	l-3.828,8.045c0.992,1.801,1.793,3.711,2.369,5.723l8.397,2.976v9.458l-8.397,2.985c-0.576,2.006-1.378,3.927-2.369,5.719
	l3.828,8.045l-6.686,6.688l-8.05-3.828c-1.792,0.994-3.712,1.794-5.714,2.375l-2.985,8.393h-9.453l-2.987-8.393
	c-2.004-0.581-3.924-1.381-5.716-2.375l-8.049,3.828l-6.683-6.688l3.831-8.045c-0.992-1.797-1.797-3.713-2.373-5.719l-8.393-2.985
	v-9.458l8.393-2.976c0.576-2.011,1.38-3.927,2.373-5.723l-3.831-8.045l6.683-6.683l8.05,3.826c1.796-0.992,3.711-1.792,5.716-2.373
	l2.987-8.393H54.532 M49.803,58.803c7.108,0,12.873-5.765,12.873-12.873s-5.765-12.877-12.873-12.877
	c-7.11,0-12.877,5.769-12.877,12.877S42.693,58.803,49.803,58.803 M58.539,5.139h-4.01h-9.453h-4.011l-1.349,3.776l-2.062,5.803
	c-0.445,0.174-0.891,0.356-1.33,0.553l-5.559-2.651l-3.625-1.719l-2.839,2.839l-6.685,6.678l-2.839,2.843l1.721,3.625l2.643,5.567
	c-0.192,0.439-0.375,0.878-0.546,1.321l-5.801,2.066L9.01,37.181v4.018v9.455v4.021l3.785,1.341l5.801,2.063
	c0.171,0.439,0.354,0.887,0.546,1.322L16.5,64.965l-1.721,3.627l2.839,2.841l6.686,6.683l2.839,2.835l3.625-1.72l5.558-2.644
	c0.441,0.188,0.885,0.372,1.331,0.546l2.062,5.806l1.349,3.775h4.013h9.453h4.009l1.349-3.775l2.062-5.806
	c0.448-0.174,0.892-0.356,1.33-0.546l5.559,2.644l3.625,1.72l2.839-2.835l6.688-6.683l2.839-2.841l-1.724-3.627l-2.642-5.563
	c0.191-0.439,0.375-0.883,0.549-1.322l5.801-2.063l3.784-1.341v-4.021v-9.455v-4.018l-3.784-1.339l-5.801-2.066
	c-0.174-0.443-0.356-0.887-0.549-1.321l2.642-5.567l1.724-3.625l-2.839-2.843l-6.688-6.678l-2.838-2.839L68.84,12.62l-5.559,2.651
	c-0.44-0.196-0.882-0.379-1.33-0.553L59.89,8.916L58.539,5.139L58.539,5.139z M49.803,53.118c-3.965,0-7.188-3.223-7.188-7.186
	s3.223-7.19,7.188-7.19c3.96,0,7.183,3.227,7.183,7.19C56.986,49.895,53.767,53.118,49.803,53.118L49.803,53.118z"/>
</svg>
