<?xml version="1.0" encoding="utf-8"?>
<!-- Generator: Adobe Illustrator 15.0.0, SVG Export Plug-In . SVG Version: 6.00 Build 0)  -->
<!DOCTYPE svg PUBLIC "-//W3C//DTD SVG 1.1//EN" "http://www.w3.org/Graphics/SVG/1.1/DTD/svg11.dtd">
<svg version="1.1" id="Layer_1" xmlns="http://www.w3.org/2000/svg" xmlns:xlink="http://www.w3.org/1999/xlink" x="0px" y="0px"
	 width="398px" height="393px" viewBox="0 0 398 393" enable-background="new 0 0 398 393" xml:space="preserve">
<g>
	<path fill="none" stroke="#FFFDFD" stroke-width="6" stroke-miterlimit="10" d="M272.542,106.225
		c-7.55-6.949-16.012-13.092-25.529-18.098c-9.517-5.006-19.351-8.633-29.276-10.903c-9.927-2.271-20.357-3.278-31.105-2.907
		c-10.748,0.37-21.036,2.225-30.857,5.201c-9.766,3.062-19.373,7.32-28.435,13.009c-9.063,5.689-17.127,12.403-24.076,19.954
		c-6.949,7.551-13.092,16.01-18.097,25.529c-4.995,9.497-8.616,19.306-10.888,29.208l0.068,0.016
		c-2.27,9.926-3.277,20.358-2.907,31.105c0.371,10.748,2.226,21.037,5.202,30.857c3.062,9.768,7.405,19.319,13.094,28.383
		c5.689,9.063,12.403,17.127,19.869,24.129c7.55,6.949,16.012,13.092,25.528,18.099c9.482,4.986,19.277,8.604,29.166,10.875
		l0.058-0.058c9.928,2.271,20.358,3.276,31.106,2.905c10.748-0.37,21.037-2.225,30.856-5.2l0.021,0.019
		c9.729-3.06,19.247-7.391,28.275-13.06c9.063-5.688,17.127-12.402,24.129-19.869c6.949-7.551,13.092-16.01,18.098-25.526
		c5.006-9.518,8.633-19.353,10.901-29.277c2.271-9.928,3.279-20.359,2.908-31.106c-0.37-10.747-2.226-21.036-5.201-30.857
		l0.022-0.007c-3.06-9.735-7.393-19.256-13.063-28.291C286.723,121.292,280.008,113.227,272.542,106.225z"/>
	<path fill="#2A4B9A" stroke="#FFFDFD" stroke-width="6" stroke-miterlimit="10" d="M89.734,257.58
		c-5.688-9.063-10.032-18.615-13.094-28.383L8.606,250.111l-0.104,0.133c4.705,15.584,11.667,30.813,20.759,45.297
		c9.091,14.482,19.813,27.234,31.769,38.383l48.573-52.215C102.138,274.707,95.423,266.643,89.734,257.58z"/>
	<path fill="#6DC5D8" stroke="#FFFDFD" stroke-width="6" stroke-miterlimit="10" d="M226.341,308.348l-0.021-0.018
		c-9.819,2.977-20.108,4.83-30.856,5.201s-21.18-0.637-31.106-2.906l-0.058,0.057c0.037,0.01,0.074,0.02,0.111,0.027l-15.978,69.535
		c15.939,3.572,32.543,5.195,49.649,4.609c17.139-0.724,33.585-3.488,49.198-8.332l0.052-0.162l-21.099-67.978
		C226.27,308.372,226.306,308.357,226.341,308.348z"/>
	<path fill="#66B22E" stroke="#FFFDFD" stroke-width="6" stroke-miterlimit="10" d="M296.843,249.893
		c-5.006,9.519-11.147,17.978-18.098,25.527l52.279,48.503c11.122-11.94,20.825-25.577,28.825-40.616
		c8.017-15.067,13.805-30.86,17.432-46.717l-0.082-0.091l-69.455-15.884C305.476,230.541,301.849,240.375,296.843,249.893z"/>
	<path fill="#F2E500" stroke="#FFFDFD" stroke-width="6" stroke-miterlimit="10" d="M272.542,106.225
		c7.466,7.002,14.181,15.067,19.87,24.129c5.67,9.035,10.003,18.555,13.063,28.291l68-20.904l0.115-0.136
		c-4.705-15.583-11.668-30.812-20.76-45.296c-9.091-14.482-19.812-27.234-31.77-38.383l-0.142,0.038
		c0.035,0.034,0.073,0.066,0.109,0.1L272.542,106.225z"/>
	<path fill="#A55299" stroke="#FFFDFD" stroke-width="6" stroke-miterlimit="10" d="M85.165,138.01
		c5.005-9.519,11.146-17.979,18.097-25.529l-52.21-48.435C39.923,75.991,30.161,89.55,22.209,104.68
		c-8.004,15.046-13.786,30.817-17.413,46.648l69.48,15.891C76.549,157.316,80.17,147.507,85.165,138.01z"/>
	<path fill="#E42520" stroke="#FFFDFD" stroke-width="6" stroke-miterlimit="10" d="M186.63,74.318
		c10.748-0.371,21.18,0.636,31.105,2.907l15.893-69.482c0.037,0.009,0.075,0.019,0.112,0.028l-0.082-0.166
		c-15.938-3.573-32.541-5.194-49.647-4.609c-17.139,0.723-33.585,3.489-49.199,8.333l-0.108,0.301l21.069,67.89
		C165.594,76.542,175.882,74.688,186.63,74.318z"/>
	<path fill="#EF7D1A" stroke="#FFFDFD" stroke-width="6" stroke-miterlimit="10" d="M217.736,77.225
		c9.927,2.27,19.761,5.897,29.276,10.903c9.519,5.005,17.979,11.148,25.529,18.098l48.487-52.163
		c-0.036-0.034-0.074-0.066-0.109-0.1c-11.933-11.106-25.556-20.799-40.576-28.79c-15.031-7.997-30.786-13.775-46.604-17.403
		c-0.036-0.009-0.074-0.019-0.111-0.028L217.736,77.225z"/>
	<path fill="#E62484" stroke="#FFFDFD" stroke-width="6" stroke-miterlimit="10" d="M127.338,92.528
		c9.062-5.688,18.669-9.947,28.435-13.009l-21.069-67.89l-0.062-0.195c-15.583,4.706-30.813,11.668-45.295,20.759
		c-14.484,9.091-27.236,19.812-38.385,31.769l0.09,0.084l52.209,48.435C110.211,104.931,118.275,98.217,127.338,92.528z"/>
	<path fill="#554595" stroke="#FFFDFD" stroke-width="6" stroke-miterlimit="10" d="M71.439,198.34
		c-0.371-10.747,0.638-21.18,2.907-31.105l-0.068-0.016l-69.48-15.891l-0.071-0.016c-3.572,15.939-5.193,32.542-4.608,49.647
		C0.839,218.1,3.606,234.545,8.45,250.16l0.156-0.049l68.034-20.914C73.664,219.377,71.81,209.088,71.439,198.34z"/>
	<path fill="#8FBE21" stroke="#FFFDFD" stroke-width="6" stroke-miterlimit="10" d="M381.975,186.889
		c-0.723-17.139-3.488-33.584-8.332-49.2l-0.168,0.052l-68,20.904l-0.022,0.007c2.977,9.821,4.831,20.11,5.201,30.857
		c0.371,10.747-0.638,21.179-2.908,31.106l69.455,15.884l0.166,0.038C380.939,220.6,382.561,203.996,381.975,186.889z"/>
	<path fill="#6DB865" stroke="#FFFDFD" stroke-width="6" stroke-miterlimit="10" d="M254.616,295.289
		c-9.028,5.669-18.546,10-28.275,13.059c-0.035,0.012-0.071,0.024-0.106,0.035l21.099,67.977l0.034,0.109
		c15.583-4.705,30.813-11.668,45.295-20.76s27.234-19.811,38.385-31.768l-0.021-0.02l-52.279-48.503
		C271.743,282.887,263.679,289.6,254.616,295.289z"/>
	<path fill="#3D79BC" stroke="#FFFDFD" stroke-width="6" stroke-miterlimit="10" d="M164.298,310.682
		c-9.889-2.271-19.685-5.888-29.166-10.875c-9.519-5.006-17.979-11.147-25.528-18.098L61.03,333.924
		c11.958,11.148,25.534,20.928,40.688,28.891c15.066,8.017,30.809,13.722,46.715,17.431l15.978-69.535
		C164.372,310.7,164.335,310.689,164.298,310.682z"/>
</g>
</svg>
