<?xml version="1.0" encoding="utf-8"?>
<!-- Generator: Adobe Illustrator 15.0.0, SVG Export Plug-In . SVG Version: 6.00 Build 0)  -->
<!DOCTYPE svg PUBLIC "-//W3C//DTD SVG 1.1//EN" "http://www.w3.org/Graphics/SVG/1.1/DTD/svg11.dtd">
<svg version="1.1" xmlns="http://www.w3.org/2000/svg" xmlns:xlink="http://www.w3.org/1999/xlink" x="0px" y="0px" width="985px"
	 height="476px" viewBox="0 0 985 476" enable-background="new 0 0 985 476" xml:space="preserve">
<g id="Layer_2">
</g>
<g id="Layer_1">
	<path fill="#FFFFFF" d="M678.309,0c-30.393,0-55.031,24.64-55.031,55.03c0,0.001,0,0.001,0,0.001v7.373l-12.003,22.914
		c-2.956,5.644-0.163,10.263,6.21,10.263h5.793v20.275c0,6.373,5.213,11.585,11.586,11.585h15.93v17.379h65.169V95.146
		c10.692-10.039,17.379-24.293,17.379-40.116C733.341,24.64,708.7,0,678.309,0z M678.936,11.456c0-2.493,2.735-2.493,2.735,0
		c0,0.586,0,15.542,0,15.542h-2.735C678.936,26.996,678.936,12.041,678.936,11.456z M639.207,69.514
		c-2.398,0-4.344-1.946-4.344-4.344c0-2.4,1.945-4.345,4.344-4.345c2.399,0,4.345,1.944,4.345,4.345
		C643.552,67.568,641.606,69.514,639.207,69.514z M661.113,44.477c0,0-14.783-2.278-15.362-2.367
		c-2.462-0.381-2.045-3.082,0.419-2.704c0.577,0.089,15.358,2.37,15.358,2.37L661.113,44.477z M656.712,20.715
		c-1.657-1.866,0.385-3.681,2.039-1.817c0.391,0.438,10.321,11.622,10.321,11.622l-2.042,1.814
		C667.03,32.334,657.097,21.152,656.712,20.715z M680.4,73.473c-1.484,0-3.182-0.85-3.182-2.126h6.372
		C683.591,72.623,681.89,73.473,680.4,73.473z M685.291,69.788c0,0.35-0.285,0.636-0.637,0.636h-8.499
		c-0.354,0-0.637-0.286-0.637-0.636v-0.423c0-0.354,0.283-0.639,0.637-0.639h8.499c0.352,0,0.637,0.285,0.637,0.639V69.788z
		 M685.291,67.237c0,0.354-0.285,0.638-0.637,0.638h-8.499c-0.354,0-0.637-0.286-0.637-0.638v-0.424
		c0-0.351,0.283-0.636,0.637-0.636h8.499c0.352,0,0.637,0.285,0.637,0.636V67.237z M690.714,51.288
		c-2.924,5.262-3.697,8.216-4.174,11.074c-0.4,2.398-0.952,2.953-2.765,2.953c-0.767,0-2.028,0-3.375,0c-1.338,0-2.598,0-3.365,0
		c-1.813,0-2.366-0.555-2.767-2.953c-0.476-2.858-1.25-5.813-4.171-11.074c-0.978-1.765-1.587-3.775-1.587-5.935
		c0-6.569,5.325-11.895,11.89-11.895c6.572,0,11.897,5.325,11.897,11.895C692.298,47.513,691.69,49.524,690.714,51.288z
		 M691.494,30.52c0,0,9.93-11.184,10.321-11.622c1.654-1.862,3.698-0.049,2.044,1.817c-0.393,0.437-10.323,11.62-10.323,11.62
		L691.494,30.52z M714.813,41.784c-0.577,0.091-15.359,2.369-15.359,2.369l-0.415-2.702c0,0,14.781-2.279,15.36-2.367
		C716.864,38.704,717.277,41.405,714.813,41.784z"/>
	<g>
		<path fill="#FFFFFF" d="M220.571,95.582h5.793v20.275c0,6.373,5.213,11.585,11.585,11.585h15.93v17.379h65.169V95.146
			c10.692-10.039,17.379-24.293,17.379-40.116c0-30.39-24.641-55.03-55.032-55.03c-30.393,0-55.032,24.64-55.032,55.03
			c0,0.001,0,0.001,0,0.001v7.373l-12.003,22.914C211.405,90.962,214.199,95.582,220.571,95.582z M237.95,65.169
			c0-2.4,1.946-4.345,4.345-4.345c2.398,0,4.345,1.944,4.345,4.345c0,2.398-1.946,4.344-4.345,4.344
			C239.896,69.514,237.95,67.568,237.95,65.169z"/>
	</g>
	<path fill="#FFFFFF" d="M479.076,0c-30.393,0-55.032,24.64-55.032,55.03c0,0.001,0,0.001,0,0.001v7.373l-12.003,22.914
		c-2.955,5.644-0.162,10.263,6.21,10.263h5.793v20.275c0,6.373,5.213,11.585,11.586,11.585h15.931v17.379h65.169V95.146
		c10.691-10.039,17.378-24.293,17.378-40.116C534.107,24.64,509.467,0,479.076,0z M439.975,69.514c-2.398,0-4.345-1.946-4.345-4.344
		c0-2.4,1.946-4.345,4.345-4.345s4.345,1.944,4.345,4.345C444.319,67.568,442.373,69.514,439.975,69.514z M511.249,83.882
		c-7.987,7.488-18.111,11.311-28.279,11.553l-0.617,19.14l-20.938-22.333l22.335-20.939l-0.02,0.504l-0.523,16.356
		c8.309-0.287,16.55-3.456,23.078-9.578c14.313-13.418,15.035-35.977,1.616-50.287c-13.42-14.311-35.979-15.037-50.288-1.617
		c-7.153,6.71-10.917,15.7-11.204,24.808l-7.257-0.232c0.35-10.966,4.877-21.797,13.495-29.875
		c17.229-16.158,44.394-15.283,60.551,1.95C529.354,40.561,528.481,67.726,511.249,83.882z M466.114,31.003
		c-1.585-2.825,2.88-5.094,4.45-2.29c7.249,12.916,8.392,15.155,15.637,28.07c0.518,0.924,0.385,1.779-0.078,2.429
		c-0.124,0.202-0.271,0.401-0.474,0.583c-7.063,6.334-11.328,9.25-18.391,15.584c-2.403,2.16-5.749-1.563-3.343-3.724
		c6.559-5.889,10.33-8.358,16.896-14.247C473.877,45.045,473.047,43.359,466.114,31.003z"/>
	<g>
		<path fill="#FFFFFF" d="M147.929,125.27H3.108V19.551h144.821V125.27z M14.694,113.684h121.649V31.136H14.694V113.684z"/>
		<polygon fill="#FFFFFF" points="53.794,39.826 23.382,104.995 127.653,104.995 101.585,70.238 85.655,83.272 		"/>
		<circle fill="#FFFFFF" cx="114.619" cy="51.411" r="10.137"/>
	</g>
	<g opacity="0.5">
		<path fill="#FFFFFF" d="M374.447,290.318h-97.875v-71.449h97.875V290.318z M284.401,282.488h82.216v-55.789h-82.216V282.488z"/>
		<polygon fill="#FFFFFF" points="310.827,232.572 290.273,276.616 360.744,276.616 343.126,253.125 332.359,261.935 		"/>
		<circle fill="#FFFFFF" cx="351.935" cy="240.402" r="6.851"/>
	</g>
	<polygon fill="#DCDCDC" points="185.067,53.318 204.146,72.424 185.067,91.528 172.449,91.528 186.976,77.003 158.432,77.003 
		158.432,67.743 186.872,67.743 172.423,53.292 	"/>
	<polygon opacity="0.5" fill="#DCDCDC" points="466.314,187.909 485.421,168.829 504.525,187.909 504.525,200.526 490,186 
		490,214.544 480.739,214.544 480.739,186.104 466.289,200.553 	"/>
	<polygon fill="#DCDCDC" points="378.225,53.318 397.305,72.424 378.225,91.528 365.606,91.528 380.134,77.003 351.59,77.003 
		351.59,67.743 380.03,67.743 365.581,53.292 	"/>
	<polygon opacity="0.5" fill="#DCDCDC" points="419.261,240.427 438.341,259.533 419.261,278.637 406.643,278.637 421.17,264.112 
		392.626,264.112 392.626,254.852 421.066,254.852 406.617,240.401 	"/>
	<polygon fill="#DCDCDC" points="577.512,53.318 596.59,72.424 577.512,91.528 564.894,91.528 579.42,77.003 550.875,77.003 
		550.875,67.743 579.316,67.743 564.866,53.292 	"/>
	<polygon fill="#DCDCDC" points="783.512,53.208 802.59,72.313 783.512,91.418 770.894,91.418 785.42,76.893 756.875,76.893 
		756.875,67.632 785.316,67.632 770.866,53.182 	"/>
	<g>
		<g>
			<path fill="#FFFFFF" d="M946.193,143.821c-0.057,0-0.112-0.001-0.169-0.005c-0.704-0.045-1.359-0.37-1.822-0.902l-23.563-27.096
				c-9.185,22.729-9.293,22.727-11.385,22.727c-0.419,0-0.838-0.102-1.212-0.295c-0.561-0.289-0.998-0.765-1.238-1.349
				c-29.38-72.118-28.981-73.409-28.632-74.548c0.341-1.107,1.484-1.904,2.642-1.904c1.645,0,8.223,2.11,67.677,27.312
				c3.201,1.357,5.272,2.237,5.688,2.403c0.141,0.052,0.278,0.114,0.404,0.187c1.039,0.585,1.559,1.795,1.263,2.951
				c-0.278,1.087-1.211,1.874-2.313,1.975c-1.67,0.48-10.146,3.849-18.595,7.299l25.037,26.23c0.494,0.518,0.758,1.215,0.729,1.93
				c-0.028,0.715-0.348,1.388-0.882,1.864l-11.875,10.555C947.462,143.584,946.837,143.821,946.193,143.821z M919.806,108.198
				c0.755,0,1.485,0.326,1.99,0.907l24.64,28.334l7.835-6.967l-25.816-27.049c-0.604-0.631-0.854-1.515-0.674-2.37
				c0.182-0.852,0.771-1.56,1.575-1.893c7.936-3.269,13.171-5.369,16.652-6.723C913.722,78.754,893.19,70.265,884.729,67.1
				c4.013,10.928,15.588,39.805,24.659,62.14c2.065-4.886,5.156-12.417,7.973-19.39c0.344-0.853,1.105-1.461,2.01-1.616
				C919.515,108.21,919.661,108.198,919.806,108.198z"/>
		</g>
		<g opacity="0.5">
			<path fill="#FFFFFF" d="M860.379,46.111c-0.845,0-1.689-0.321-2.334-0.965l-10.934-10.937c-1.287-1.289-1.287-3.376,0-4.666
				c1.29-1.287,3.377-1.287,4.667,0l10.934,10.937c1.287,1.289,1.287,3.376,0,4.666C862.065,45.79,861.223,46.111,860.379,46.111z"
				/>
		</g>
		<g opacity="0.5">
			<path fill="#FFFFFF" d="M852.943,58.994c-0.284,0-0.57-0.038-0.857-0.113l-14.935-4.004c-1.76-0.471-2.804-2.28-2.332-4.04
				c0.472-1.76,2.281-2.804,4.041-2.332l14.936,4.004c1.759,0.471,2.804,2.28,2.332,4.04
				C855.731,58.021,854.398,58.994,852.943,58.994z"/>
		</g>
		<g opacity="0.5">
			<path fill="#FFFFFF" d="M838.003,77.867c-1.457,0-2.789-0.972-3.185-2.445c-0.471-1.76,0.573-3.569,2.333-4.041l14.936-4
				c1.763-0.467,3.569,0.575,4.041,2.333c0.471,1.76-0.574,3.569-2.333,4.04l-14.938,4.001
				C838.571,77.83,838.284,77.867,838.003,77.867z"/>
		</g>
		<g opacity="0.5">
			<path fill="#FFFFFF" d="M849.442,97.679c-0.844,0-1.689-0.321-2.334-0.965c-1.287-1.29-1.287-3.377,0-4.664l10.937-10.934
				c1.29-1.289,3.377-1.288,4.667,0c1.287,1.29,1.287,3.378,0,4.664l-10.937,10.933C851.13,97.358,850.286,97.679,849.442,97.679z"
				/>
		</g>
		<g opacity="0.5">
			<path fill="#FFFFFF" d="M869.257,109.121c-0.28,0-0.569-0.037-0.855-0.113c-1.759-0.472-2.804-2.282-2.332-4.041l4.005-14.936
				c0.473-1.758,2.284-2.796,4.04-2.332c1.759,0.471,2.804,2.28,2.333,4.041l-4.005,14.934
				C872.047,108.148,870.715,109.121,869.257,109.121z"/>
		</g>
		<g opacity="0.5">
			<path fill="#FFFFFF" d="M908.452,58.994c-1.458,0-2.788-0.972-3.186-2.445c-0.47-1.759,0.573-3.569,2.334-4.04l14.934-4.004
				c1.755-0.47,3.566,0.571,4.04,2.332c0.47,1.759-0.574,3.569-2.334,4.04l-14.933,4.004
				C909.021,58.956,908.732,58.994,908.452,58.994z"/>
		</g>
		<g opacity="0.5">
			<path fill="#FFFFFF" d="M901.017,46.11c-0.845,0-1.687-0.322-2.333-0.966c-1.289-1.288-1.289-3.376,0-4.666l10.933-10.936
				c1.289-1.289,3.377-1.288,4.665,0c1.289,1.288,1.289,3.376,0.002,4.665L903.35,45.144C902.705,45.788,901.86,46.11,901.017,46.11
				z"/>
		</g>
		<g opacity="0.5">
			<path fill="#FFFFFF" d="M888.137,38.673c-0.282,0-0.57-0.036-0.854-0.113c-1.76-0.471-2.804-2.279-2.333-4.039l4.001-14.937
				c0.472-1.759,2.276-2.804,4.039-2.333c1.759,0.471,2.804,2.28,2.333,4.04l-4.002,14.936
				C890.927,37.7,889.594,38.673,888.137,38.673z"/>
		</g>
		<g opacity="0.5">
			<path fill="#FFFFFF" d="M873.259,38.673c-1.457,0-2.79-0.972-3.185-2.445l-4.005-14.937c-0.472-1.759,0.573-3.569,2.332-4.04
				c1.759-0.472,3.569,0.572,4.041,2.332l4.005,14.937c0.471,1.759-0.574,3.568-2.333,4.039
				C873.829,38.636,873.543,38.673,873.259,38.673z"/>
		</g>
	</g>
	<path opacity="0.5" fill="#FFFFFF" d="M431.811,284.083c-2.029,5.739-3.145,11.911-3.145,18.345c0,0.001,0,0.001,0,0.001v7.373
		l-12.003,22.914c-2.956,5.644-0.162,10.263,6.21,10.263h5.793v20.275c0,6.373,5.213,11.585,11.585,11.585h15.931v17.379h65.169
		v-49.675c10.692-10.039,17.379-24.293,17.379-40.116c0-6.434-1.115-12.605-3.145-18.345H431.811z M444.597,316.911
		c-2.399,0-4.346-1.946-4.346-4.344c0-2.4,1.946-4.345,4.346-4.345c2.398,0,4.344,1.944,4.344,4.345
		C448.94,314.965,446.995,316.911,444.597,316.911z"/>
	<path opacity="0.5" fill="#FFFFFF" d="M504.642,230.614c-20.741-9.516-44.327-5.051-60.156,9.457l92.226,42.31
		C537.382,260.918,525.383,240.129,504.642,230.614z"/>
</g>
</svg>
