<?xml version="1.0" encoding="utf-8"?>
<!-- Generator: Adobe Illustrator 15.0.0, SVG Export Plug-In . SVG Version: 6.00 Build 0)  -->
<!DOCTYPE svg PUBLIC "-//W3C//DTD SVG 1.1//EN" "http://www.w3.org/Graphics/SVG/1.1/DTD/svg11.dtd">
<svg version="1.1" id="Layer_1" xmlns="http://www.w3.org/2000/svg" xmlns:xlink="http://www.w3.org/1999/xlink" x="0px" y="0px"
	 width="168.333px" height="61.761px" viewBox="0 0 168.333 61.761" enable-background="new 0 0 168.333 61.761"
	 xml:space="preserve">
<line fill="none" stroke="#DF2314" stroke-width="5" stroke-miterlimit="10" x1="4.583" y1="21.667" x2="104.583" y2="21.667"/>
<line stroke="#324C9C" stroke-width="5" stroke-miterlimit="10" x1="104.583" y1="21.667" x2="165.583" y2="21.667"/>
<text transform="matrix(1 0 0 1 51.9165 13)" fill="#DF2314" font-family="'MyriadPro-Regular'" font-size="12">a</text>
<text transform="matrix(1 0 0 1 124.25 13)" fill="#324C9C" font-family="'MyriadPro-Regular'" font-size="12">b</text>
<g>
	<text transform="matrix(1 0 0 1 63.9995 42.3335)"><tspan x="0" y="0" fill="#DF2314" font-family="'MyriadPro-Regular'" font-size="12">a</tspan><tspan x="5.784" y="0" font-family="'MyriadPro-Regular'" font-size="12">+</tspan><tspan x="12.936" y="0" fill="#324C9C" font-family="'MyriadPro-Regular'" font-size="12">b</tspan></text>
	<text transform="matrix(1 0 0 1 69.9995 55.1665)" fill="#DF2314" font-family="'MyriadPro-Regular'" font-size="12">a</text>
	<text transform="matrix(1 0 0 1 104.9995 42.3335)" fill="#DF2314" font-family="'MyriadPro-Regular'" font-size="12">a</text>
	<text transform="matrix(1 0 0 1 104.666 55.1665)" fill="#324C9C" font-family="'MyriadPro-Regular'" font-size="12">b</text>
	<text transform="matrix(1 0 0 1 91.083 47.0835)" font-family="'MyriadPro-Regular'" font-size="12">=</text>
	<line fill="none" stroke="#000000" stroke-miterlimit="10" x1="64" y1="45" x2="84" y2="45"/>
	<line fill="none" stroke="#000000" stroke-miterlimit="10" x1="103.333" y1="45" x2="112.333" y2="45"/>
</g>
</svg>
