<?xml version="1.0" encoding="utf-8"?>
<!-- Generator: Adobe Illustrator 15.0.0, SVG Export Plug-In . SVG Version: 6.00 Build 0)  -->
<!DOCTYPE svg PUBLIC "-//W3C//DTD SVG 1.1//EN" "http://www.w3.org/Graphics/SVG/1.1/DTD/svg11.dtd">
<svg version="1.1" id="Layer_1" xmlns="http://www.w3.org/2000/svg" xmlns:xlink="http://www.w3.org/1999/xlink" x="0px" y="0px"
	 width="161px" height="158px" viewBox="0 0 161 158" enable-background="new 0 0 161 158" xml:space="preserve">
<rect x="-0.083" y="24.333" fill="#FFFFFF" stroke="#000000" stroke-miterlimit="10" width="100" height="100"/>
<rect x="99.916" y="24.333" fill="#B2B2B2" stroke="#000000" stroke-miterlimit="10" width="61" height="100"/>
<text transform="matrix(1 0 0 1 62.9165 10.583)" fill="#797979" font-family="'MyriadPro-Regular'" font-size="12">960px</text>
<g>
	<g>
		<line fill="none" stroke="#797979" stroke-miterlimit="10" x1="8.776" y1="15.333" x2="152.057" y2="15.333"/>
		<g>
			<polygon fill="#797979" points="10.757,18.116 -0.083,15.213 10.757,12.306 			"/>
		</g>
		<g>
			<polygon fill="#797979" points="150.076,18.116 160.916,15.213 150.076,12.306 			"/>
		</g>
	</g>
</g>
<text transform="matrix(1 0 0 1 35.833 110.4277)" fill="#797979" font-family="'MyriadPro-Regular'" font-size="12">593px</text>
<text transform="matrix(1 0 0 1 115.166 112.4277)" fill="#797979" font-family="'MyriadPro-Regular'" font-size="12">367px</text>
<g>
	<g>
		<line fill="none" stroke="#797979" stroke-miterlimit="10" x1="8.776" y1="98.594" x2="91.057" y2="98.594"/>
		<g>
			<polygon fill="#797979" points="10.757,101.377 -0.083,98.474 10.757,95.566 			"/>
		</g>
		<g>
			<polygon fill="#797979" points="89.076,101.377 99.916,98.474 89.076,95.566 			"/>
		</g>
	</g>
</g>
<g>
	<g>
		<line fill="none" stroke="#797979" stroke-miterlimit="10" x1="108.775" y1="98.594" x2="152.225" y2="98.594"/>
		<g>
			<polygon fill="#797979" points="110.758,101.377 99.916,98.474 110.758,95.566 			"/>
		</g>
		<g>
			<polygon fill="#797979" points="150.242,101.377 161.084,98.474 150.242,95.566 			"/>
		</g>
	</g>
</g>
</svg>
