<?xml version="1.0" encoding="utf-8"?>
<!-- Generator: Adobe Illustrator 15.0.0, SVG Export Plug-In . SVG Version: 6.00 Build 0)  -->
<!DOCTYPE svg PUBLIC "-//W3C//DTD SVG 1.1//EN" "http://www.w3.org/Graphics/SVG/1.1/DTD/svg11.dtd">
<svg version="1.1" id="Layer_1" xmlns="http://www.w3.org/2000/svg" xmlns:xlink="http://www.w3.org/1999/xlink" x="0px" y="0px"
	 width="297.64px" height="222.667px" viewBox="0 0 297.64 222.667" enable-background="new 0 0 297.64 222.667"
	 xml:space="preserve">
<circle fill="#E30613" cx="55.563" cy="48.986" r="41"/>
<rect x="25.938" y="43.736" fill="#FFFFFF" width="59.25" height="10.5"/>
<circle fill="#40AC49" cx="149.935" cy="48.986" r="41"/>
<rect x="120.31" y="43.736" fill="#FFFFFF" width="59.25" height="10.5"/>
<path fill="#FFFFFF" d="M244.307,7.986c-22.644,0-41,18.356-41,41s18.356,41,41,41c22.643,0,41-18.356,41-41
	S266.95,7.986,244.307,7.986z M214.682,54.236v-10.5h59.25v10.5H214.682z"/>
<g id="Page_1">
	<path id="Close" fill="#E30613" d="M26.945,156.306l7.212-7.21c1.776-1.782,4.656-1.782,6.43,0l14.977,14.975l14.979-14.975
		c1.773-1.782,4.652-1.782,6.425,0l7.213,7.21c1.774,1.774,1.774,4.655,0,6.431l-14.975,14.975l14.975,14.98
		c1.774,1.774,1.774,4.649,0,6.426l-7.213,7.216c-1.773,1.776-4.652,1.776-6.425,0l-14.979-14.98l-14.977,14.98
		c-1.773,1.776-4.653,1.776-6.43,0l-7.212-7.216c-1.774-1.773-1.776-4.649,0-6.426l14.976-14.98l-14.976-14.975
		C25.168,160.963,25.171,158.083,26.945,156.306z"/>
</g>
<g id="Page_1_1_">
	<path id="Close_1_" fill="#40AC49" d="M120.203,154.378l7.212-7.21c1.776-1.782,4.656-1.782,6.43,0l14.977,14.975l14.979-14.975
		c1.773-1.782,4.652-1.782,6.425,0l7.213,7.21c1.774,1.774,1.774,4.655,0,6.431l-14.975,14.975l14.975,14.98
		c1.774,1.774,1.774,4.649,0,6.426l-7.213,7.216c-1.773,1.776-4.652,1.776-6.425,0l-14.979-14.98l-14.977,14.98
		c-1.773,1.776-4.653,1.776-6.43,0l-7.212-7.216c-1.774-1.773-1.776-4.649,0-6.426l14.976-14.98l-14.976-14.975
		C118.426,159.036,118.429,156.155,120.203,154.378z"/>
</g>
<g id="Page_1_2_">
	<path id="Close_2_" fill="#FFFFFF" d="M215.689,156.306l7.212-7.21c1.776-1.782,4.656-1.782,6.43,0l14.977,14.975l14.979-14.975
		c1.773-1.782,4.652-1.782,6.425,0l7.213,7.21c1.774,1.774,1.774,4.655,0,6.431l-14.975,14.975l14.975,14.98
		c1.774,1.774,1.774,4.649,0,6.426l-7.213,7.216c-1.773,1.776-4.652,1.776-6.425,0l-14.979-14.98l-14.977,14.98
		c-1.773,1.776-4.653,1.776-6.43,0l-7.212-7.216c-1.774-1.773-1.776-4.649,0-6.426l14.976-14.98l-14.976-14.975
		C213.913,160.963,213.916,158.083,215.689,156.306z"/>
</g>
</svg>
