<?xml version="1.0" encoding="utf-8"?>
<!-- Generator: Adobe Illustrator 15.0.0, SVG Export Plug-In . SVG Version: 6.00 Build 0)  -->
<!DOCTYPE svg PUBLIC "-//W3C//DTD SVG 1.1//EN" "http://www.w3.org/Graphics/SVG/1.1/DTD/svg11.dtd">
<svg version="1.1" id="Layer_1" xmlns="http://www.w3.org/2000/svg" xmlns:xlink="http://www.w3.org/1999/xlink" x="0px" y="0px"
	 width="345px" height="296px" viewBox="0 0 345 296" enable-background="new 0 0 345 296" xml:space="preserve">
<path fill="#010202" d="M87.684,155.423H21.742V280.5h96.217v-94.806L87.684,155.423z M89.091,163.633l20.654,20.65H89.091V163.633z
	 M26.552,275.689v-115.46h57.732v28.864h28.864v86.596H26.552z"/>
<g>
	<ellipse fill="#010202" cx="32.607" cy="107.786" rx="13.566" ry="13.714"/>
	<path fill="#010202" d="M84.609,121.5H65.391c0-25.879-20.752-46.857-46.35-46.857l0,0V55.215
		C55.255,55.215,84.609,84.891,84.609,121.5z"/>
	<path fill="#010202" d="M98.176,121.5c0-44.184-35.429-80-79.135-80v-20c54.631,0,98.918,44.772,98.918,100H98.176z"/>
</g>
<path fill="#010202" d="M311.268,230.167h-29.666L273.935,244l-10.333-28.457l-7.999,14.624h-30.93h-4.81h0V280.5h96.217v-45.497
	v-4.836H311.268z M311.268,275.689h-86.595v-40.686h31.096l7.681-11.632l10.319,28.295l9.667-16.663h27.833V275.689z"/>
<path fill="#010202" d="M285.804,155.423h-65.942V213.5h0v0.004h35.906l7.681-11.632l10.319,28.295l9.667-16.663h32.645V213.5
	v-4.833v-22.973L285.804,155.423z M287.211,163.633l20.654,20.65h-20.654V163.633z M281.602,208.667l-7.667,13.833l-10.333-28.457
	l-7.999,14.624h-30.93v-48.438h57.732v28.864h28.863v19.574H281.602z"/>
<g>
	<path fill="#010202" d="M279.737,77.498c1.125-0.625,2.394-0.962,3.717-0.962c2.051,0,3.977,0.8,5.421,2.248l9.251,9.251
		l6.308-6.308C289.22,46.29,254.305,21.5,213.657,21.5v20C241.279,41.5,265.582,55.815,279.737,77.498z"/>
	<polygon fill="#010202" points="297.982,121.5 298.27,121.5 298.126,121.356 	"/>
	<ellipse fill="#010202" cx="227.223" cy="107.786" rx="13.566" ry="13.714"/>
	<path fill="#010202" d="M272.212,113.947l5.699-5.7c-0.684-3.409-1.632-6.72-2.813-9.917l-2.887-2.886
		c-2.005-2.006-2.658-4.857-1.971-7.421c-11.384-19.623-32.454-32.808-56.584-32.808v19.428c25.598,0,46.35,20.979,46.35,46.857
		h10.267C269.528,118.905,270.172,115.991,272.212,113.947z"/>
</g>
<polygon fill="#A4A3A3" points="168.31,55.242 188.589,75.549 168.31,95.855 154.898,95.855 170.338,80.417 140,80.417 140,70.574 
	170.229,70.574 154.871,55.215 "/>
<polygon fill="#A4A3A3" points="168.31,197.668 188.589,217.976 168.31,238.282 154.898,238.282 170.338,222.843 140,222.843 
	140,213 170.229,213 154.871,197.641 "/>
<path d="M312.8,80.536c0.938,0,1.876,0.358,2.593,1.076l5.817,5.816c1.43,1.431,1.43,3.755,0,5.188l-12.079,12.08l12.079,12.081
	c1.43,1.431,1.43,3.752,0,5.186l-5.817,5.819c-0.715,0.716-1.653,1.074-2.592,1.074c-0.939,0-1.877-0.358-2.594-1.074l-12.08-12.082
	l-12.08,12.082c-0.715,0.716-1.654,1.074-2.592,1.074c-0.939,0-1.879-0.358-2.596-1.074l-5.818-5.819
	c-1.43-1.431-1.43-3.752,0-5.186l12.082-12.081l-12.082-12.08c-1.43-1.431-1.43-3.754,0-5.188l5.818-5.816
	c0.717-0.718,1.656-1.076,2.596-1.076c0.938,0,1.877,0.358,2.592,1.076l12.08,12.08l12.08-12.08
	C310.924,80.894,311.861,80.536,312.8,80.536"/>
</svg>
